<?xml version="1.0" encoding="utf-8"?>
<!-- Generator: Adobe Illustrator 23.0.2, SVG Export Plug-In . SVG Version: 6.00 Build 0)  -->
<svg version="1.1" xmlns="http://www.w3.org/2000/svg" xmlns:xlink="http://www.w3.org/1999/xlink" x="0px" y="0px"
	 viewBox="0 0 345 106" style="enable-background:new 0 0 345 106;" xml:space="preserve">
<g id="Layer_1">
	<g>
		<path d="M84.91,10.28c-1.93,1.01-3.47,2.54-4.54,2.26c-7.41-1.91-12.72,0.96-16.53,6.99c-4.02,6.36-2.97,12.82,1.12,18.67
			c3.97,5.68,9.65,8.27,16.5,7.79c2.85-7.1-2.65-9.54-6.43-13.19c-1.8-1.73-3.35-4.61-3.44-7.02c-0.13-3.39,2.54-5.81,6.01-4.65
			c1.82,0.61,2.94,3.29,4.38,5.04c-1.86,1.39-3.73,2.77-5.87,4.37c1.59-0.29,4.18-0.02,5.37-1.18c1.37-1.34,2.38-4.11,2.01-5.95
			c-0.71-3.54-3.49-5.71-7.32-5.36c-4.47,0.4-7.28,3.14-8.23,7.45c-1.36,6.13,1.98,10.91,8.54,13.25c1.66,0.59,2.95,2.24,5.34,4.14
			c-9.19,2.11-17.05-3.58-18.68-11.77c-1.57-7.9,2.99-15.5,10.28-16.91c5.11-0.98,9.19,0.93,12.19,5.03
			c2.63,3.59,2.03,8.34-0.84,12.54c1.12,1.82,2.74,3.25,2.81,4.75c0.3,5.97,0.12,11.96,0.12,18.22
			c-10.26-2.07-20.69-2.35-27.4-11.94c-8.89-12.7-5.05-31.23,10.39-35.17C75.29,6.46,79.84,6.36,84.91,10.28z"/>
		<path d="M178.19,98.43c-1.95,1.43-3.62,2.65-6.47,4.73c-1.28-15.89-0.28-30.77-0.64-45.47c5.28,1.09,10.38,1.51,15.01,3.23
			c7.63,2.84,8.9,9.73,3.81,18.37c5.8,3.49,10.19,8.12,8.8,15.51c-0.89,4.74-3.4,8.82-8.6,9.95
			C184.72,105.92,180.84,103.47,178.19,98.43z M181.38,93.14c-1.01,1.69-1.07,4.2,1.48,6.31c2.9,2.4,6.1,2.46,9.09,0.17
			c3.13-2.4,4.04-5.95,2.8-9.39c-1.52-4.24-5.16-6.36-9.7-6.61c-5.6-0.31-6.57,0.83-5.74,5.71c2.69-0.45,5.7-1.86,7.87-1.04
			c1.99,0.75,3.97,3.81,4.23,6.04c0.16,1.37-2.94,3.12-4.58,4.69C185.13,97.19,183.42,95.35,181.38,93.14z M182.32,76.37
			c3.25,1.25,5.58,0.39,6.48-2.73c0.96-3.33,0.37-6.55-3.33-7.81c-1.99-0.68-4.31-0.4-6.48-0.55c-0.01,0.6-0.02,1.2-0.03,1.8
			c3.44,0.07,7.54-1,8,4.17C187.25,74.45,186.05,76.44,182.32,76.37z"/>
		<path d="M242.18,71.21c-7.91-7.33-16.58-2.81-20.54,9.78c-3.28-5.35-2.88-11.89,1.04-16.93c3.69-4.75,10.51-6.84,16.62-5.1
			c6.1,1.74,10.39,6.81,10.88,12.84c0.85,10.6-5.82,17.93-16.29,17.17c-2.95-0.22-6.98-1.73-8.36-3.97
			c-2.3-3.76,1.44-9.24,2.82-11.31c1.12-1.67,4.02-3.79,8.74-3.75C238.48,69.94,240.12,70.41,242.18,71.21z"/>
		<path d="M111.07,95.01c-0.96,1.65-1.84,4.64-2.9,4.7c-4.15,0.25-7.17-2.19-8.8-6.03c-0.43-1.01-0.36-2.29-0.32-3.44
			c0.17-4.35-1.07-7.49-5.61-9.31c-4.05-1.63-5.06-8.74-1.61-10.73c1.76-1.02,5.74-1.15,6.62-0.03c1.36,1.72,0.91,4.86,1.18,6.96
			c2.09-1.07,3.24-2.93,2.22-5.69c-1.4-3.78-4.55-5.3-8.3-4.9c-2.78,0.3-5.64,1.17-5.55,5.07c0.1,4.32-0.19,8.67,0.08,12.98
			c0.23,3.67-1.12,5.98-5.23,7.64c0-10.2,0-19.99,0-29.1c2.53,0,4.74,0.48,6.65-0.09c5.81-1.72,12.46,0.12,14.95,4.56
			c2.57,4.56,1.16,9.32-4.13,13.88c2.83,5.21,0.76,14.33,10.94,13.71L111.07,95.01z"/>
		<path d="M317.14,92.04c-6.36-1.58-5.02-6.35-5.09-10.4c-0.07-4.16-0.02-8.31-0.02-13.12c-2.16,0.2-4.21-0.02-5.87,0.7
			c-0.85,0.37-1.24,2.36-1.39,3.67c-0.25,2.14-0.13,4.33-0.16,6.5c-1.49-0.23-3.47,0.06-4.36-0.79c-2.55-2.43-0.62-4.42,1.29-6.22
			c0.2-0.19,0.19-0.6,0.54-1.86c-2.37-0.82-4.8-1.66-8.12-2.81c0,6.54-0.21,11.98,0.07,17.4c0.2,3.88-1.78,5.63-5.99,7.32
			c0-3.61,0-6.64,0-9.67c0-6.33-0.12-12.67,0.1-18.99c0.04-1.28,1.37-2.52,2.1-3.79c1.14,0.68,2.3,1.32,3.42,2.04
			c3.06,1.97,6.1,3.97,8.87,5.77c2.45-1.09,4.69-2,6.85-3.07c0.97-0.48,1.76-1.31,2.65-1.96c1.29-0.93,2.59-1.84,3.88-2.75
			c0.62,1.35,1.74,2.69,1.77,4.05c0.17,8.16,0.1,16.33,0.06,24.49C317.72,89.63,317.37,90.7,317.14,92.04z"/>
		<path d="M133.15,33.28c4.66-0.28,6.73-2.88,5.67-6.86c-1.02-3.83-4.43-5.49-8.16-5.13c-3.57,0.35-6.09,2.19-5.72,6.59
			c0.32,3.8-0.16,7.67,0.13,11.47c0.28,3.65-0.96,6.05-5.77,7.97c-0.25-10.35-0.17-20.12-0.05-29.66c2.97,0.28,5.07,1.04,6.81,0.54
			c6.39-1.81,12.86-0.14,15.41,4.43c2.52,4.53,1.26,8.74-3.97,13.69c0.62,2.33,1.39,4.51,1.74,6.75c0.57,3.69,2.38,5.97,6.06,7.02
			c0.96,0.28,1.56,1.82,2.33,2.79c-1.16,0.63-2.37,1.88-3.46,1.79c-4.67-0.4-8.1-4.28-8.08-9.15c0.02-4.49-0.75-8-5.73-9.74
			c-3.56-1.24-4.2-4.91-3.05-7.97c0.62-1.64,3.13-3.22,5-3.54c1.4-0.24,4.03,1.28,4.49,2.58c0.47,1.35-0.9,3.44-1.71,5.09
			C134.79,32.55,133.82,32.84,133.15,33.28z"/>
		<path d="M208.56,35.85c2.36-20.03,3.82-23.17,8.08-21.11c-1.27,4.68-2.97,9.01-3.52,13.48c-0.61,4.91-0.01,9.96-0.26,14.94
			c-0.07,1.35-1.28,2.64-1.97,3.95c-1.01-0.89-2.36-1.6-2.98-2.71c-2.93-5.18-5.66-10.47-8.48-15.71c-0.22-0.41-0.57-0.76-1.79-2.37
			c-0.35,6.5-0.64,11.77-0.93,17.25c1.49,0.58,2.72,1.06,3.96,1.53c0.06,0.5,0.13,1,0.19,1.5c-2.13,0.46-4.53,1.73-6.3,1.12
			c-1.27-0.44-2.44-3.4-2.35-5.17c0.31-6.11,1.19-12.2,1.85-18.3c0.35-3.22,0.07-5.94-4.57-4.62c2.05-4.57,5.31-5.08,8.17-1.25
			c3.06,4.1,5.58,8.61,8.31,12.96C206.77,32.67,207.51,34.05,208.56,35.85z"/>
		<path d="M111.25,95.19c-0.4-2.88-1.91-6.19-1-8.58c2.95-7.7,6.74-15.08,10.36-22.51c0.44-0.9,1.8-1.34,3.11-2.27
			c4.56,8.24,1.83,19.12,10.02,25.53c-4.97,3.75-6.31,2.89-11.56-8.14c-2.21,1.05-5.46,1.53-6.52,3.31
			c-2.81,4.75-1.99,7.33,3.2,12.99c-3.42-0.23-5.62-0.37-7.81-0.52C111.07,95.01,111.25,95.19,111.25,95.19z"/>
		<path d="M17.28,95.17c-5.79,2.71-9.41,0.94-8.23-4.14c1.66-7.14,4.86-13.95,7.74-20.77c1.15-2.73,3.18-5.08,5.45-8.59
			c4.68,9.46,2.3,20.05,10.26,26.51c-4.33,4.17-6.34,2.92-11.14-7.8c-2.25,0.88-5.78,1.16-6.68,2.85
			C12.58,87.16,11.3,91.85,17.28,95.17z"/>
		<path d="M339.68,74.13c1.92,11.69-4.51,19.11-16.58,19.54c0-1.76,0-3.51,0-5.52c6-1.3,12.3-2.33,13.48-10.75
			c-4.8,0-9.33,0-13.69,0c-3.27-10.74,5.05-20.14,16.53-19.11c0,1.71,0,3.45,0,5.14c-10,1.85-12.54,3.82-13.31,10.7
			C330.69,74.13,335.24,74.13,339.68,74.13z"/>
		<path d="M169.43,45.38c3.52-4.08,3.38-23.54-0.54-27.86c5.56,0,10.71,0,15.86,0c0.05,0.38,0.11,0.76,0.16,1.14
			c-2.44,0.32-4.87,0.65-7.68,1.02c-0.09,1.45-0.17,2.85-0.25,4.22c6.72,1.41,9.51,3.79,8.82,7.63c-0.88,4.87-4.43,5.1-8.6,4.26
			c0,2.6,0,5.04,0,7.86c2.46,0.25,4.98,0.51,7.49,0.76c0,0.32,0.01,0.65,0.01,0.97C179.68,45.38,174.66,45.38,169.43,45.38z"/>
		<path d="M115.82,43.71c-5.34,2.72-6.16,2.1-10.54-8.46c-2.55,1.02-6.43,1.34-7.48,3.24c-2.09,3.78-3.49,8.59,2.14,11.5
			c-3.84,2.66-6.53,1.86-7.15-2.24c-0.34-2.22-0.28-4.83,0.58-6.83c2.88-6.68,6.15-13.21,9.42-19.71c0.52-1.03,1.84-1.66,3.26-2.89
			C109.97,26.88,108.13,37.03,115.82,43.71z"/>
		<path d="M68.92,97.29c-5.17-2.4-6.26-5.49-6.05-9.72c0.32-6.59,0.09-13.21,0.09-20.21c-3.48,0-6.51,0-9.87,0c0-1.28,0-2.66,0-4.45
			c7.84,0,15.46-0.12,23.06,0.14c1.09,0.04,2.12,1.9,3.18,2.91c-0.3,0.38-0.6,0.75-0.9,1.13c-2.9,0-5.8,0-9.5,0
			C68.92,76.95,68.92,86.76,68.92,97.29z"/>
		<path d="M143.97,89.9c3.67-1.01,6.38-1.76,9.72-2.67c0.09,1.48,0.21,3.29,0.35,5.55c-6.81,0-13.31,0-20.99,0
			c6.17-5.29,3.52-11.48,3.9-17.1c0.34-5.11,0.07-10.26,0.07-16.08c4.07,1.28,7,2.61,6.96,7.16
			C143.92,74.03,143.97,81.31,143.97,89.9z"/>
		<path d="M147.18,22.55c7.16-4.62,15.22-3.67,18.52,2.69c2.31,4.45,2.03,9.09-0.9,13.12c-3.23,4.44-6.93,8.95-13.05,8.54
			c-1.69-0.11-4.19-3.11-4.54-5.1c-0.68-3.84-0.09-7.9-0.04-11.88C147.2,27.57,147.18,25.2,147.18,22.55z M152.14,22.88
			c-0.4,5.49-1.03,10.72-1.08,15.96c-0.04,4.33,2.52,5.46,6.18,3.15c3.77-2.38,6.09-8.21,4.79-12.66
			C160.65,24.63,156.89,23.35,152.14,22.88z"/>
		<path d="M210.97,89.34c3.71-0.93,6.54-1.64,9.68-2.43c0.1,1.19,0.23,2.75,0.4,4.72c-6.79,0-13.29,0-20.56,0
			c6.18-6.5,2.73-14,3.46-20.93c0.4-3.77,0.07-7.62,0.07-12.22c4.01,1.49,7.05,2.69,6.98,7.33
			C210.89,73.13,210.97,80.45,210.97,89.34z"/>
		<path d="M274.24,45.78c-2.57,0-5.66,0-8.88,0c3.54-4.72,3.45-23.79-0.29-28.35c5.42,0,10.54,0,15.94,0
			c-1.3,4.08-9.88-1.46-7.82,6.26c6.79,1.98,9.25,4.27,8.45,8.12c-0.95,4.61-4.5,4.6-9.06,4.11
			C273.15,39.38,273.68,42.48,274.24,45.78z"/>
		<path d="M50.4,63.36c0,1.55,0,3.12,0,4.66c-10.52,2.93-11.54,3.73-12.65,10.2c4.32,0,8.57,0,12.69,0
			c2.25,10.77-2.83,16.97-15.36,18.68c-0.1-1.74-0.2-3.43-0.26-4.57c3.77-1.84,7.29-3.18,10.34-5.22c1.41-0.94,1.91-3.26,3.29-5.84
			c-5.29,0-9.65,0-13.86,0C32.4,70.46,39.69,62.4,50.4,63.36z"/>
	</g>
	<path d="M276.18,74.45c-7.91-7.33-16.58-2.81-20.54,9.78c-3.28-5.35-2.88-11.89,1.04-16.93c3.69-4.75,10.51-6.84,16.62-5.1
		c6.1,1.74,10.39,6.81,10.88,12.84c0.85,10.6-5.82,17.93-16.29,17.17c-2.95-0.22-6.98-1.73-8.36-3.97
		c-2.3-3.76,1.44-9.24,2.82-11.31c1.12-1.67,4.02-3.79,8.74-3.75C272.48,73.18,274.12,73.64,276.18,74.45z"/>
	<path d="M254.3,28.25c-7.91-7.33-16.58-2.81-20.54,9.78c-3.28-5.35-2.88-11.89,1.04-16.93c3.69-4.75,10.51-6.84,16.62-5.1
		c6.1,1.74,10.39,6.81,10.88,12.84c0.85,10.6-5.82,17.93-16.29,17.17c-2.95-0.22-6.98-1.73-8.36-3.97
		c-2.3-3.76,1.44-9.24,2.82-11.31c1.12-1.67,4.02-3.79,8.74-3.75C250.6,26.99,252.23,27.45,254.3,28.25z"/>
</g>
<g id="Layer_2">
</g>
</svg>
